<mxfile host="app.diagrams.net" modified="2024-04-05T05:55:56.393Z" agent="Mozilla/5.0 (Macintosh; Intel Mac OS X 10.15; rv:124.0) Gecko/20100101 Firefox/124.0" etag="4zMbtkS80LuTGykNYt2r" version="24.2.2" type="github">
  <diagram name="Page-1" id="90a13364-a465-7bf4-72fc-28e22215d7a0">
    <mxGraphModel dx="2049" dy="1070" grid="1" gridSize="10" guides="1" tooltips="1" connect="1" arrows="1" fold="1" page="1" pageScale="1.5" pageWidth="1169" pageHeight="826" background="#000000" math="0" shadow="0">
      <root>
        <mxCell id="0" style=";html=1;" />
        <mxCell id="1" style=";html=1;" parent="0" />
        <mxCell id="3a17f1ce550125da-2" value="&lt;b&gt;Turbocharger Boost Control Module&lt;br&gt;&lt;/b&gt;" style="whiteSpace=wrap;html=1;shadow=1;fontSize=18;fillColor=#f5f5f5;strokeColor=#666666;" parent="1" vertex="1">
          <mxGeometry x="787" y="454" width="170" height="280" as="geometry" />
        </mxCell>
        <mxCell id="3a17f1ce550125da-8" value="&lt;b&gt;Engine Control Module&lt;br&gt;&lt;/b&gt;" style="whiteSpace=wrap;html=1;shadow=1;fontSize=18;fillColor=#f5f5f5;strokeColor=#666666;" parent="1" vertex="1">
          <mxGeometry x="570" y="446" width="120" height="296" as="geometry" />
        </mxCell>
        <mxCell id="rggsFe4FoENxkZEYLdlN-1" value="DC Motor" style="rounded=1;whiteSpace=wrap;html=1;strokeColor=#FFFFFF;fillColor=#000000;labelPosition=center;verticalLabelPosition=top;align=center;verticalAlign=bottom;fontColor=#FFFFFF;" vertex="1" parent="1">
          <mxGeometry x="1037" y="454" width="120" height="114" as="geometry" />
        </mxCell>
        <mxCell id="rggsFe4FoENxkZEYLdlN-2" value="M" style="verticalLabelPosition=middle;shadow=0;dashed=0;align=center;html=1;verticalAlign=middle;strokeWidth=1;shape=ellipse;aspect=fixed;fontSize=35;fillColor=#000000;strokeColor=#FFFFFF;fontColor=#FFFFFF;" vertex="1" parent="1">
          <mxGeometry x="1067" y="481" width="60" height="60" as="geometry" />
        </mxCell>
        <mxCell id="rggsFe4FoENxkZEYLdlN-3" value="&lt;font color=&quot;#ffffff&quot;&gt;Vane Nozzle Position Sensor&lt;/font&gt;" style="rounded=1;whiteSpace=wrap;html=1;strokeColor=#FFFFFF;fillColor=#000000;labelPosition=center;verticalLabelPosition=bottom;align=center;verticalAlign=top;" vertex="1" parent="1">
          <mxGeometry x="1037" y="620" width="120" height="114" as="geometry" />
        </mxCell>
        <mxCell id="rggsFe4FoENxkZEYLdlN-4" value="&lt;div align=&quot;right&quot; style=&quot;font-size: 10px;&quot;&gt;&lt;font style=&quot;font-size: 12px;&quot;&gt;&lt;b&gt;Ignition Switch Signal&lt;/b&gt;&lt;/font&gt;&lt;br&gt;&lt;/div&gt;" style="shape=singleArrow;whiteSpace=wrap;html=1;labelPosition=left;verticalLabelPosition=middle;align=right;verticalAlign=middle;fontColor=#FFFFFF;" vertex="1" parent="1">
          <mxGeometry x="460" y="467.5" width="100" height="34" as="geometry" />
        </mxCell>
        <mxCell id="rggsFe4FoENxkZEYLdlN-6" value="&lt;b&gt;Engine Speed&lt;br&gt;&lt;/b&gt;" style="shape=singleArrow;whiteSpace=wrap;html=1;labelPosition=left;verticalLabelPosition=middle;align=right;verticalAlign=middle;fontColor=#FFFFFF;" vertex="1" parent="1">
          <mxGeometry x="460" y="510.5" width="100" height="34" as="geometry" />
        </mxCell>
        <mxCell id="rggsFe4FoENxkZEYLdlN-7" value="&lt;b&gt;Turbo Pressure&lt;br&gt;&lt;/b&gt;" style="shape=singleArrow;whiteSpace=wrap;html=1;labelPosition=left;verticalLabelPosition=middle;align=right;verticalAlign=middle;fontColor=#FFFFFF;" vertex="1" parent="1">
          <mxGeometry x="460" y="599" width="100" height="34" as="geometry" />
        </mxCell>
        <mxCell id="rggsFe4FoENxkZEYLdlN-8" value="&lt;b&gt;Accelerator Position&lt;br&gt;&lt;/b&gt;" style="shape=singleArrow;whiteSpace=wrap;html=1;labelPosition=left;verticalLabelPosition=middle;align=right;verticalAlign=middle;fontColor=#FFFFFF;" vertex="1" parent="1">
          <mxGeometry x="460" y="556" width="100" height="34" as="geometry" />
        </mxCell>
        <mxCell id="rggsFe4FoENxkZEYLdlN-9" value="&lt;b&gt;ECT Sensor&lt;br&gt;&lt;/b&gt;" style="shape=singleArrow;whiteSpace=wrap;html=1;labelPosition=left;verticalLabelPosition=middle;align=right;verticalAlign=middle;fontColor=#FFFFFF;" vertex="1" parent="1">
          <mxGeometry x="460" y="686.5" width="100" height="34" as="geometry" />
        </mxCell>
        <mxCell id="rggsFe4FoENxkZEYLdlN-10" value="&lt;b&gt;Barometric Pressure&lt;br&gt;&lt;/b&gt;" style="shape=singleArrow;whiteSpace=wrap;html=1;labelPosition=left;verticalLabelPosition=middle;align=right;verticalAlign=middle;fontColor=#FFFFFF;" vertex="1" parent="1">
          <mxGeometry x="460" y="643.5" width="100" height="34" as="geometry" />
        </mxCell>
        <mxCell id="rggsFe4FoENxkZEYLdlN-11" value="&lt;b&gt;Vane Nozzle Opening Angle Signal&lt;br&gt;&lt;/b&gt;" style="shape=singleArrow;whiteSpace=wrap;html=1;labelPosition=center;verticalLabelPosition=top;align=center;verticalAlign=bottom;fontColor=#FFFFFF;" vertex="1" parent="1">
          <mxGeometry x="700" y="467.5" width="70" height="34" as="geometry" />
        </mxCell>
        <mxCell id="rggsFe4FoENxkZEYLdlN-12" value="&lt;div&gt;&lt;b&gt;Motor Status Signal&lt;/b&gt;&lt;/div&gt;" style="shape=singleArrow;whiteSpace=wrap;html=1;labelPosition=center;verticalLabelPosition=bottom;align=center;verticalAlign=top;fontColor=#FFFFFF;direction=west;" vertex="1" parent="1">
          <mxGeometry x="700" y="686.5" width="70" height="34" as="geometry" />
        </mxCell>
        <mxCell id="rggsFe4FoENxkZEYLdlN-13" value="&lt;div style=&quot;font-size: 11px;&quot;&gt;&lt;font style=&quot;font-size: 11px;&quot;&gt;Vane Nozzle&lt;/font&gt;&lt;/div&gt;&lt;div style=&quot;font-size: 11px;&quot;&gt;&lt;font style=&quot;font-size: 11px;&quot;&gt;Position Signal&lt;/font&gt;&lt;/div&gt;" style="verticalLabelPosition=bottom;shadow=0;dashed=0;align=center;html=1;verticalAlign=top;shape=mxgraph.electrical.transmission.3_line_bus;fontColor=#FFFFFF;strokeColor=#FFFFFF;strokeWidth=8;" vertex="1" parent="1">
          <mxGeometry x="963.5" y="662" width="67" height="30" as="geometry" />
        </mxCell>
        <mxCell id="rggsFe4FoENxkZEYLdlN-14" value="" style="edgeStyle=orthogonalEdgeStyle;rounded=0;orthogonalLoop=1;jettySize=auto;html=1;exitX=1;exitY=0.25;exitDx=0;exitDy=0;entryX=-0.005;entryY=0.629;entryDx=0;entryDy=0;entryPerimeter=0;strokeColor=#FFFFFF;labelPosition=center;verticalLabelPosition=bottom;align=center;verticalAlign=top;fontColor=#FFFFFF;" edge="1" parent="1" source="3a17f1ce550125da-2" target="rggsFe4FoENxkZEYLdlN-1">
          <mxGeometry relative="1" as="geometry">
            <Array as="points">
              <mxPoint x="957" y="526" />
              <mxPoint x="997" y="526" />
            </Array>
          </mxGeometry>
        </mxCell>
        <mxCell id="rggsFe4FoENxkZEYLdlN-15" style="edgeStyle=orthogonalEdgeStyle;rounded=0;orthogonalLoop=1;jettySize=auto;html=1;exitX=0;exitY=0.25;exitDx=0;exitDy=0;entryX=1.001;entryY=0.093;entryDx=0;entryDy=0;entryPerimeter=0;startArrow=classic;startFill=1;endArrow=none;endFill=0;strokeColor=#FFFFFF;" edge="1" parent="1" source="rggsFe4FoENxkZEYLdlN-1" target="3a17f1ce550125da-2">
          <mxGeometry relative="1" as="geometry">
            <Array as="points">
              <mxPoint x="997" y="483" />
              <mxPoint x="957" y="483" />
            </Array>
          </mxGeometry>
        </mxCell>
        <mxCell id="rggsFe4FoENxkZEYLdlN-16" value="&lt;font style=&quot;font-size: 9px;&quot; color=&quot;#ffffff&quot;&gt;M+&lt;/font&gt;" style="text;strokeColor=none;align=center;fillColor=none;html=1;verticalAlign=middle;whiteSpace=wrap;rounded=0;" vertex="1" parent="1">
          <mxGeometry x="940" y="454" width="60" height="30" as="geometry" />
        </mxCell>
        <mxCell id="rggsFe4FoENxkZEYLdlN-17" value="&lt;font style=&quot;font-size: 9px;&quot; color=&quot;#ffffff&quot;&gt;M-&lt;/font&gt;" style="text;strokeColor=none;align=center;fillColor=none;html=1;verticalAlign=middle;whiteSpace=wrap;rounded=0;" vertex="1" parent="1">
          <mxGeometry x="940" y="496" width="60" height="30" as="geometry" />
        </mxCell>
        <mxCell id="rggsFe4FoENxkZEYLdlN-18" value="&lt;div&gt;&lt;font color=&quot;#ffffff&quot; style=&quot;font-size: 10px;&quot;&gt;DC Motor&lt;/font&gt;&lt;/div&gt;&lt;div&gt;&lt;font color=&quot;#ffffff&quot; style=&quot;font-size: 10px;&quot;&gt;Activation Signal&lt;br&gt;&lt;/font&gt;&lt;/div&gt;" style="text;strokeColor=none;align=center;fillColor=none;html=1;verticalAlign=middle;whiteSpace=wrap;rounded=0;" vertex="1" parent="1">
          <mxGeometry x="967" y="430" width="60" height="30" as="geometry" />
        </mxCell>
        <mxCell id="rggsFe4FoENxkZEYLdlN-19" value="" style="verticalLabelPosition=bottom;shadow=0;dashed=0;align=center;html=1;verticalAlign=top;shape=mxgraph.electrical.logic_gates.inverting_contact;strokeColor=#FFFFFF;fillColor=#000000;" vertex="1" parent="1">
          <mxGeometry x="1062" y="642" width="70" height="70" as="geometry" />
        </mxCell>
      </root>
    </mxGraphModel>
  </diagram>
</mxfile>
